<?xml version="1.0" encoding="iso-8859-1"?>
<!-- Generator: Adobe Illustrator 19.0.0, SVG Export Plug-In . SVG Version: 6.00 Build 0)  -->
<svg xmlns="http://www.w3.org/2000/svg" xmlns:xlink="http://www.w3.org/1999/xlink" version="1.1" id="Layer_1" x="0px" y="0px" viewBox="0 0 512 512" style="enable-background:new 0 0 512 512;" xml:space="preserve" width="512" height="512">
<path d="M469.477,106.162L512,63.736L448.264,0l-42.426,42.523L363.411,0l-42.426,42.523L278.559,0l-63.64,63.736l84.853,84.853  L148.279,300.081l-84.853-84.853L0,278.868l42.213,42.426L0,363.721l42.213,42.427L0,448.573L63.426,512l42.427-42.213L148.279,512  l42.426-42.213L233.132,512l63.64-63.427l-84.853-84.853l151.492-151.492l84.853,84.853L512,233.442l-42.523-42.427L512,148.589  L469.477,106.162z M448.264,42.523l21.213,21.213l-21.213,21.213l-21.213-21.213L448.264,42.523z M342.198,63.736l21.213-21.213  l106.066,106.066l-21.213,21.213L342.198,63.736z M63.426,469.787l-21.213-21.213l21.213-21.213l21.213,21.213L63.426,469.787z   M148.279,469.787L42.213,363.721l21.213-21.213l106.066,106.066L148.279,469.787z M233.132,469.787l-21.213-21.213L42.213,278.868  l21.213-21.213l190.919,190.919L233.132,469.787z M190.706,342.508l-21.213-21.213l151.492-151.492l21.213,21.213L190.706,342.508z   M448.264,254.655L257.345,63.736l21.213-21.213l21.213,21.213l169.705,169.706L448.264,254.655z"/>















</svg>
